# xmcd
#
# Track frame offsets: 
#        150
#        23085
#        44340
#        70222
#        87705
#        108800
#        134150
#        159270
#        176695
#        203582
#
# Disc length: 3091 seconds
#
# Revision: 0
# Processed by: cddbd v1.5.2PL0 Copyright (c) Steve Scherf et al.
# Submitted via: ExactAudioCopy v1.0b3
#
DISCID=850c110a
DTITLE=Various Artist - Ngay Xua Anh Noi
DYEAR=1995
DGENRE=
TTITLE0=Thanh Tuyen - Hoa tim ngay xua
TTITLE1=Nhat Quang - Ai cho toi tinh yeu
TTITLE2=Giao Linh - Ngay xua anh noi
TTITLE3=Nhat Linh - Ke o mien xa
TTITLE4=Giao Linh - Chuyen hen ho
TTITLE5=Nhat Quang - Doi mat nguoi xua
TTITLE6=Thanh Tuyen - Ai kho vi ai
TTITLE7=Nhat Linh - Bong co may
TTITLE8=Giao Linh - Hoi tuong
TTITLE9=Nhat Quang - Dua em vao ha
EXTD=
EXTT0=
EXTT1=
EXTT2=
EXTT3=
EXTT4=
EXTT5=
EXTT6=
EXTT7=
EXTT8=
EXTT9=
PLAYORDER=
